<?xml version="1.0" standalone="no"?>
<!DOCTYPE svg PUBLIC "-//W3C//DTD SVG 20010904//EN"
 "http://www.w3.org/TR/2001/REC-SVG-20010904/DTD/svg10.dtd">
<svg version="1.0" xmlns="http://www.w3.org/2000/svg"
 width="1130.000000pt" height="1130.000000pt" viewBox="0 0 1130.000000 1130.000000"
 preserveAspectRatio="xMidYMid meet">
<metadata>
Created by potrace 1.15, written by Peter Selinger 2001-2017
</metadata>
<g transform="translate(0.000000,1130.000000) scale(0.100000,-0.100000)"
fill="#000000" stroke="none">
<path d="M5150 10819 c-1548 -77 -2946 -552 -3659 -1244 -190 -184 -297 -325
-394 -520 -82 -164 -137 -388 -137 -555 0 -99 28 -262 66 -382 18 -60 34 -114
34 -120 0 -6 -19 8 -41 30 -69 66 -121 87 -215 86 -64 0 -90 -5 -125 -23 -109
-56 -143 -127 -142 -296 1 -113 13 -203 84 -625 106 -629 212 -1190 288 -1522
5 -22 172 -158 806 -654 440 -344 889 -695 997 -780 111 -87 205 -168 213
-184 21 -40 19 -126 -4 -191 -19 -55 -84 -189 -410 -852 -99 -203 -181 -371
-181 -373 0 -2 578 -4 1285 -4 1019 0 1287 3 1290 13 3 6 16 86 30 177 13 91
34 221 45 290 177 1105 217 1536 169 1817 -29 170 -142 302 -464 543 -220 164
-1349 912 -1468 972 -291 147 -593 99 -647 -104 -24 -87 14 -142 195 -283 50
-38 185 -149 300 -245 116 -97 239 -197 275 -224 164 -124 202 -188 135 -232
-28 -18 -78 -8 -135 27 -19 12 -109 65 -200 117 -168 96 -202 116 -720 424
-162 97 -380 225 -483 285 -178 102 -190 111 -216 158 -58 105 -130 272 -212
495 -28 74 -53 142 -56 150 -3 8 -47 139 -98 290 -51 151 -107 315 -124 364
-18 49 -30 90 -27 93 2 2 39 -40 82 -94 188 -237 472 -471 807 -668 136 -79
458 -234 602 -290 66 -26 147 -57 180 -70 128 -50 447 -148 630 -194 455 -114
922 -189 1450 -231 215 -18 856 -24 1115 -11 1420 70 2692 459 3470 1061 123
96 312 280 406 397 78 96 103 121 90 87 -15 -37 -78 -221 -168 -489 -137 -411
-232 -653 -328 -845 l-48 -95 -149 -84 c-81 -47 -202 -117 -268 -156 -560
-333 -723 -429 -805 -477 -433 -253 -463 -268 -497 -249 -80 42 -48 105 120
233 45 34 188 151 317 258 129 108 274 226 322 264 112 87 131 113 136 191 3
52 0 66 -23 101 -36 53 -106 99 -181 118 -78 20 -145 20 -242 0 -162 -33 -167
-36 -1152 -690 -617 -409 -837 -586 -931 -749 -109 -190 -88 -672 74 -1680 14
-82 46 -288 73 -457 l48 -308 1289 0 c709 0 1287 3 1285 8 -2 4 -13 27 -25 52
-11 25 -132 270 -268 545 -313 636 -307 622 -312 715 -4 62 -1 80 15 106 11
17 154 136 319 264 164 128 327 256 363 285 36 28 125 98 199 156 73 57 179
140 235 184 56 44 278 217 494 385 l391 305 25 105 c65 269 232 1176 327 1780
25 161 30 217 27 320 -3 104 -7 132 -25 165 -45 86 -126 129 -243 129 -87 1
-136 -19 -208 -86 -24 -22 -46 -38 -48 -35 -3 2 7 35 21 73 54 144 66 210 72
389 4 134 2 189 -11 258 -196 1040 -1733 1884 -3781 2077 -413 38 -911 49
-1325 29z m408 -597 l2 -522 -1196 0 -1196 0 30 38 c51 64 243 248 335 322
456 364 1052 597 1702 665 135 14 265 23 305 20 13 0 15 -67 18 -523z m447
502 c269 -27 512 -80 775 -167 69 -23 132 -42 141 -42 9 0 22 -6 31 -12 8 -7
40 -24 70 -37 49 -22 58 -23 69 -10 9 11 15 12 26 3 8 -7 12 -18 9 -26 -3 -8
12 -21 42 -34 143 -65 396 -225 538 -340 49 -39 131 -112 182 -163 l92 -91 95
0 c74 0 98 -3 106 -15 8 -12 10 -11 7 5 -2 15 -12 21 -40 23 -31 3 -49 16
-120 89 -297 306 -690 550 -1148 714 -150 53 -143 58 46 29 992 -152 1834
-457 2422 -878 l93 -67 -612 -3 c-605 -2 -613 -2 -634 18 -20 18 -23 19 -35 5
-16 -19 -47 -19 -85 1 -35 18 -120 23 -136 7 -8 -8 2 -9 35 -6 50 6 96 -2 96
-17 0 -6 -33 -10 -75 -10 -62 0 -80 -4 -97 -20 -28 -25 -54 -25 -113 1 -60 27
-104 16 -163 -39 -56 -51 -60 -73 -22 -106 29 -24 128 -61 138 -52 2 3 -16 10
-39 16 -45 12 -119 56 -119 71 0 5 132 9 293 9 l293 0 48 -72 c116 -178 229
-448 270 -648 17 -80 36 -226 36 -272 l0 -28 -434 0 -433 0 -6 58 c-4 31 -9
100 -13 153 -6 90 -5 98 15 118 13 13 34 21 56 21 l35 0 0 80 0 80 -235 0
c-150 0 -235 -4 -236 -10 0 -5 0 -37 0 -70 0 -33 0 -64 0 -70 1 -5 16 -10 35
-10 25 0 40 -7 55 -26 40 -51 22 -58 -41 -17 -42 26 -85 31 -131 17 -14 -4
-18 -2 -15 7 3 8 20 16 39 19 l34 5 3 77 3 77 -93 3 -93 3 45 16 c70 24 59 44
-25 45 -38 0 -83 6 -98 12 -42 18 -78 14 -103 -9 -32 -30 -70 -19 -91 25 -47
100 75 151 218 90 73 -30 101 -29 109 6 6 25 7 25 101 22 51 -2 107 1 124 6
l29 8 -44 31 c-62 43 -88 73 -93 108 l-4 30 -2 -31 c-1 -37 25 -74 76 -105 36
-22 36 -23 12 -31 -15 -6 -25 -5 -27 1 -2 6 -31 13 -64 17 -55 6 -68 12 -123
59 -91 77 -117 89 -184 80 -31 -3 -69 -8 -86 -10 -130 -17 -204 -17 -257 -1
-76 22 -114 20 -175 -8 -68 -32 -88 -69 -79 -145 4 -31 9 -70 11 -88 2 -24 -4
-40 -31 -71 l-33 -39 -138 -5 c-113 -5 -153 -10 -220 -32 -142 -46 -252 -150
-298 -281 -27 -78 -31 -261 -8 -352 16 -59 17 -73 6 -77 -11 -5 -33 29 -33 49
0 11 -74 162 -102 208 -17 29 -52 76 -77 106 l-45 54 40 34 c59 50 155 95 221
102 l58 6 0 83 0 83 -549 0 c-302 -1 -551 -3 -554 -5 -2 -3 -5 -17 -6 -33 -2
-15 -4 -32 -6 -38 -1 -5 -2 -27 -1 -47 1 -34 4 -38 36 -44 l35 -6 0 -225 c0
-207 -1 -224 -17 -221 -10 2 -34 28 -54 58 -37 58 -95 114 -135 132 -23 11
-23 11 22 51 66 58 87 106 82 184 -5 74 -24 105 -89 145 -67 42 -140 48 -557
48 l-383 0 3 -77 c3 -75 4 -78 28 -82 14 -1 28 -8 32 -15 4 -6 8 -84 8 -173
l0 -163 -117 -1 c-65 -1 -156 -2 -203 -3 -71 -1 -98 4 -160 27 -88 33 -95 39
-121 89 -15 29 -25 38 -45 38 -51 0 -105 -44 -146 -119 -11 -19 -25 -31 -38
-31 -17 0 -20 6 -20 48 0 69 35 274 65 377 53 182 129 348 237 517 l50 77
1191 3 c656 2 1207 0 1225 -4 48 -9 93 7 144 51 24 21 59 44 78 49 19 6 68 24
109 41 86 37 90 37 66 11 -16 -18 -17 -21 -1 -44 9 -14 33 -30 53 -36 33 -9
50 -7 135 23 184 64 231 125 138 179 -36 20 -37 27 -9 62 26 33 52 33 78 -1
11 -16 20 -23 21 -18 0 6 -10 22 -23 37 -21 26 -24 26 -54 13 -17 -7 -39 -27
-47 -44 l-16 -31 40 -25 c23 -14 44 -33 47 -41 8 -21 -24 -52 -87 -83 -52 -26
-61 -27 -167 -23 -62 2 -113 8 -113 12 0 5 21 21 47 36 26 15 42 29 36 31 -14
5 -122 -31 -190 -64 -32 -15 -61 -22 -73 -18 -20 6 -20 15 -20 524 0 285 2
520 4 522 8 7 165 -1 321 -17z m-1525 -58 c0 -2 -44 -19 -97 -37 -316 -104
-681 -302 -933 -505 -107 -86 -295 -268 -367 -356 l-55 -68 -617 0 -616 0 25
20 c14 11 77 56 140 99 538 366 1248 632 2110 790 284 52 410 70 410 57z
m-1597 -1178 c-148 -243 -246 -531 -274 -811 l-12 -117 -751 2 -751 3 3 45 c4
66 46 233 82 326 65 172 194 362 367 544 l95 100 649 0 648 0 -56 -92z m6802
-3 c259 -261 423 -573 451 -857 l7 -68 -751 0 -750 0 -7 68 c-19 198 -59 375
-120 533 -43 110 -126 277 -176 353 -21 32 -39 60 -39 62 0 2 290 4 645 4
l645 0 95 -95z m-3145 -422 c0 -3 21 -100 46 -215 26 -115 45 -210 43 -213 -3
-2 -27 -7 -54 -10 l-50 -6 -35 61 c-43 75 -110 147 -155 166 -77 32 -200 9
-252 -47 -35 -38 -65 -117 -70 -184 -14 -165 73 -329 206 -388 72 -32 172 -28
240 8 55 31 98 76 127 138 10 21 23 36 30 33 7 -3 29 -8 48 -12 20 -3 36 -9
36 -12 0 -3 -30 -85 -66 -183 -66 -178 -66 -179 -93 -171 -30 8 -97 7 -267 -3
-182 -11 -312 23 -433 113 -101 76 -166 176 -196 299 -24 98 -17 264 14 345
79 205 297 298 630 270 102 -9 136 -9 176 2 58 17 75 18 75 9z m-2160 -43 c51
-21 77 -42 95 -76 19 -37 19 -126 1 -163 -17 -32 -77 -87 -112 -103 -34 -16
-29 -30 15 -51 63 -29 127 -92 160 -159 52 -103 41 -229 -27 -308 -19 -23 -53
-50 -76 -62 -94 -48 -119 -51 -523 -55 l-383 -5 0 50 c0 47 2 50 29 55 18 4
31 14 35 29 3 13 6 181 6 373 0 301 -2 354 -16 373 -8 12 -24 22 -35 22 -16 0
-19 7 -19 51 l0 50 408 -3 c328 -3 414 -7 442 -18z m1260 -29 l0 -49 -43 -6
c-24 -4 -70 -19 -103 -35 -64 -30 -183 -119 -184 -137 0 -6 12 -21 26 -35 72
-67 168 -236 224 -395 43 -124 68 -166 113 -188 36 -17 38 -20 35 -60 l-3 -41
-257 -3 -258 -2 0 50 c0 43 3 50 20 50 54 0 -3 166 -112 328 -27 39 -51 72
-53 72 -3 0 -5 -86 -5 -191 l0 -190 35 -15 c33 -13 35 -17 35 -59 l0 -45 -255
0 -255 0 0 49 c0 46 2 49 29 54 27 6 30 11 36 59 3 29 5 200 3 379 -3 344 -5
359 -49 359 -16 0 -19 8 -19 50 l0 50 520 0 520 0 0 -49z m1580 -1 c0 -43 -3
-50 -19 -50 -11 0 -32 -10 -47 -23 -23 -20 -28 -34 -35 -108 -4 -46 -8 -181
-8 -299 -1 -199 1 -218 19 -248 25 -41 73 -62 142 -62 70 0 116 25 142 75 19
36 21 56 19 185 -3 209 -19 382 -39 422 -21 42 -16 38 -60 53 -35 12 -37 15
-38 56 l-1 44 208 3 207 2 0 -50 c0 -46 -2 -50 -24 -50 -32 0 -73 -35 -81 -68
-3 -16 1 -132 9 -258 10 -153 12 -250 6 -292 -22 -160 -120 -252 -304 -287
-145 -28 -333 -12 -432 36 -89 42 -141 135 -146 259 -1 30 2 166 6 301 5 136
6 259 2 273 -5 21 -14 27 -46 32 -39 6 -40 7 -40 49 0 23 3 45 7 48 3 4 129 7
280 7 l273 0 0 -50z m146 -285 c34 -22 50 -145 18 -145 -25 0 -88 55 -110 95
l-19 37 24 19 c25 20 47 19 87 -6z m-4403 -47 c21 -39 76 -74 164 -102 62 -20
122 -24 221 -12 l72 9 0 -36 c0 -40 25 -56 59 -38 58 32 81 -13 81 -157 l0
-105 -93 5 c-110 6 -155 24 -246 97 -35 29 -96 68 -135 88 -81 41 -177 100
-189 117 -4 6 -5 27 -1 48 3 20 1 53 -5 74 -13 45 -7 56 27 52 18 -2 32 -14
45 -40z m-360 -275 c5 -45 3 -60 -8 -66 -21 -12 -18 -34 15 -107 21 -47 26
-68 18 -77 -7 -9 -7 -18 3 -29 18 -22 79 -235 73 -256 -3 -9 1 -20 9 -25 18
-10 58 -93 52 -104 -3 -4 -1 -11 5 -14 6 -4 30 -46 55 -93 24 -48 58 -107 74
-132 17 -25 31 -48 31 -52 0 -5 -290 -8 -644 -8 l-644 0 -109 114 c-210 220
-344 446 -402 678 -23 89 -41 215 -33 223 3 3 341 5 752 5 l747 0 6 -57z
m5917 25 c-1 -64 -29 -248 -54 -345 -48 -189 -136 -390 -247 -563 l-51 -80
-182 0 -182 0 4 35 c3 25 0 36 -12 41 -24 9 -24 318 0 332 10 6 14 19 12 38
l-3 29 -232 3 -233 2 0 -34 c0 -21 6 -36 15 -40 21 -8 23 -326 2 -326 -8 0
-35 64 -69 158 -44 125 -55 166 -51 200 l5 42 -61 0 c-34 0 -61 3 -61 8 1 4
15 23 33 43 28 32 40 37 92 43 147 16 241 54 310 123 l43 43 51 -12 c40 -9 72
-9 141 0 122 17 140 24 140 61 0 49 -87 108 -205 141 -58 16 -60 18 -63 53
l-3 37 430 0 431 0 0 -32z m1615 -40 c-27 -282 -177 -569 -441 -847 l-96 -101
-650 0 -650 0 21 33 c179 273 284 578 316 920 l7 67 750 0 751 0 -8 -72z
m-6494 -524 c-21 -26 -31 -114 -13 -114 4 0 30 22 57 50 38 39 46 53 37 62
-23 23 -11 28 78 28 96 0 114 -10 53 -28 -21 -7 -56 -27 -78 -46 l-40 -34 32
-34 c32 -34 81 -124 102 -190 16 -48 37 -66 56 -47 15 15 135 323 135 345 0 8
-4 14 -10 14 -5 0 -10 5 -10 10 0 6 40 10 100 10 l100 0 -6 -25 c-7 -29 101
-340 128 -367 10 -10 18 -20 18 -23 0 -3 -49 -5 -110 -5 -69 0 -110 4 -110 10
0 6 7 13 15 16 21 9 19 47 -5 77 -22 28 -101 63 -124 54 -7 -3 -22 -29 -31
-58 -18 -52 -18 -53 4 -70 11 -9 21 -20 21 -23 0 -3 -72 -6 -160 -6 -88 0
-160 2 -160 5 0 3 5 14 12 24 14 23 -7 85 -54 155 -24 37 -33 44 -44 35 -20
-16 -19 -158 1 -185 8 -10 15 -22 15 -26 0 -5 -43 -8 -95 -8 -52 0 -95 3 -95
8 0 4 7 16 15 26 22 29 22 338 0 356 -29 24 -14 30 86 30 l100 0 -20 -26z
m941 3 c-21 -22 -22 -33 -22 -174 0 -124 3 -154 16 -167 36 -37 114 -4 157 66
35 56 52 55 32 -3 -8 -22 -19 -58 -25 -80 l-11 -39 -169 0 c-153 0 -198 7
-155 24 13 4 15 35 15 186 0 151 -2 182 -15 186 -39 15 -6 24 92 24 l106 0
-21 -23z m428 14 c0 -5 -7 -14 -15 -21 -12 -10 -15 -43 -15 -180 0 -137 3
-170 15 -180 29 -24 14 -30 -80 -30 -93 0 -107 4 -83 28 7 7 11 66 12 181 0
152 -1 172 -18 190 l-19 21 101 0 c56 0 102 -4 102 -9z m275 -14 c-5 -20 28
-117 40 -117 13 0 55 104 50 121 -6 18 -1 19 100 19 l106 0 -20 -26 c-19 -24
-21 -40 -21 -183 0 -169 8 -199 47 -187 26 8 43 41 108 216 33 89 50 149 44
155 -20 21 -5 25 91 25 97 0 112 -4 90 -26 -15 -15 97 -332 127 -362 13 -13
23 -25 23 -27 0 -3 -52 -5 -115 -5 -63 0 -115 3 -115 8 0 4 9 13 20 20 28 17
25 36 -11 76 -27 31 -78 56 -116 56 -12 0 -43 -81 -43 -112 0 -10 7 -21 15
-24 44 -17 -3 -24 -160 -24 -96 0 -175 3 -175 6 0 4 8 13 18 20 14 11 17 32
19 151 3 155 7 154 -68 16 -27 -51 -53 -93 -57 -93 -4 0 -30 45 -57 101 -28
55 -53 103 -57 106 -5 2 -8 -55 -8 -126 0 -118 2 -133 20 -151 11 -11 20 -22
20 -25 0 -3 -29 -5 -65 -5 -61 0 -84 11 -50 24 23 9 22 352 -2 378 -15 17 -12
18 96 18 111 0 111 0 106 -23z m1033 3 c-11 -17 -7 -25 32 -65 24 -25 48 -45
52 -45 14 0 9 75 -7 96 -23 31 -19 34 47 34 59 0 60 -1 45 -18 -15 -16 -17
-45 -17 -195 0 -106 4 -178 10 -182 25 -15 5 -25 -50 -25 -33 0 -60 2 -60 5 0
3 9 14 20 25 11 11 20 27 20 35 0 8 -53 72 -117 142 l-118 126 -3 -144 c-3
-135 -1 -145 18 -161 11 -9 20 -19 20 -22 0 -3 -29 -6 -65 -6 -66 0 -78 7 -50
30 12 10 15 43 15 181 0 136 -3 170 -15 183 -8 8 -15 17 -15 20 0 3 56 6 125
6 122 0 125 0 113 -20z m612 -32 c6 -29 14 -61 17 -70 7 -29 -15 -20 -32 12
-16 32 -61 60 -95 60 -19 0 -20 -5 -20 -160 0 -147 2 -162 20 -180 11 -11 20
-22 20 -25 0 -3 -49 -5 -110 -5 -102 0 -138 10 -90 25 19 6 20 15 20 166 0 87
-1 162 -2 167 -2 4 -16 6 -33 5 -29 -1 -76 -42 -87 -74 -3 -8 -8 -11 -12 -8
-5 5 7 89 19 127 3 9 50 12 189 12 l184 0 12 -52z m290 44 c0 -4 -5 -13 -11
-19 -13 -13 89 -312 121 -355 11 -15 20 -30 20 -33 0 -3 -49 -5 -110 -5 -60 0
-110 2 -110 5 0 3 9 14 19 24 24 24 18 51 -17 84 -25 23 -80 47 -107 47 -14 0
-45 -75 -45 -108 0 -13 7 -25 15 -28 35 -14 10 -24 -60 -24 -41 0 -75 2 -75 4
0 3 13 17 28 33 36 36 159 347 141 358 -27 17 1 25 91 25 55 0 100 -4 100 -8z
m385 -14 c-5 -18 5 -34 45 -73 l50 -49 0 46 c0 31 -7 54 -21 72 l-20 26 60 0
c62 0 73 -7 46 -30 -22 -18 -22 -327 0 -356 23 -31 19 -34 -45 -34 -33 0 -60
2 -60 5 0 3 9 14 20 25 11 11 20 27 20 35 0 15 -227 265 -241 265 -4 0 -6 -63
-5 -139 1 -117 4 -142 19 -158 9 -11 17 -23 17 -26 0 -4 -27 -7 -60 -7 -61 0
-72 8 -45 30 12 10 15 43 15 181 0 136 -3 170 -15 183 -8 8 -15 17 -15 20 0 3
54 6 120 6 120 0 120 0 115 -22z m-21 -235 c47 -51 86 -95 86 -98 0 -3 -11
-10 -25 -15 -22 -8 -24 -14 -20 -45 l4 -35 -54 0 -55 0 0 35 c0 24 -6 37 -20
45 -18 10 -20 21 -20 111 0 55 4 99 9 97 5 -1 47 -45 95 -95z m-4535 3 c57
-29 171 -156 171 -190 0 -3 -33 -6 -74 -6 l-74 0 -45 68 c-65 98 -69 109 -57
132 14 26 20 25 79 -4z m-28 -316 c3 0 27 -26 52 -57 25 -32 78 -91 117 -132
l70 -74 0 -58 c0 -32 5 -70 11 -86 10 -27 11 -28 25 -8 36 50 43 55 66 46 13
-5 79 -51 148 -103 263 -197 531 -340 854 -453 65 -23 115 -44 110 -47 -5 -2
-90 8 -189 24 -905 141 -1679 409 -2250 776 -116 74 -235 161 -235 170 0 5
644 6 1221 2z m5032 -23 c-123 -146 -257 -272 -420 -394 -492 -368 -1134 -588
-1835 -628 l-118 -6 0 48 0 49 93 36 c50 19 160 58 242 85 83 27 184 63 225
80 41 17 89 35 105 40 44 12 45 45 2 77 -23 18 -38 41 -50 80 -28 87 -2 113
76 75 60 -29 81 -21 74 30 -8 62 12 78 114 95 78 13 77 58 -1 75 -93 20 -107
37 -70 84 31 39 25 55 -22 68 -84 22 -98 30 -98 55 0 14 10 30 25 40 20 13 32
14 75 5 78 -17 124 -14 145 9 18 19 33 20 729 22 391 2 715 1 719 0 5 -2 0
-14 -10 -25z m1387 22 c0 -8 -179 -135 -275 -196 -564 -354 -1405 -637 -2255
-758 -63 -9 -123 -18 -132 -21 -10 -3 -18 -1 -18 3 0 5 26 17 58 27 186 58
457 182 647 297 274 165 462 324 715 604 l45 50 608 0 c334 0 607 -3 607 -6z
m-5377 -406 c58 -9 68 -32 54 -125 -9 -61 -8 -80 2 -92 21 -25 56 -19 104 18
98 75 117 76 246 22 89 -38 146 -23 192 51 29 47 61 65 111 65 37 -1 47 -6 78
-42 19 -22 41 -40 48 -40 7 0 31 9 53 21 54 27 83 15 129 -52 52 -77 96 -87
183 -43 46 24 59 26 127 21 41 -3 96 -13 123 -22 l47 -17 -2 -202 -3 -201
-110 3 c-443 12 -983 147 -1380 344 -175 87 -395 221 -395 239 0 17 43 29 150
43 120 16 188 19 243 9z"/>
<path d="M6497 9000 c-3 -12 6 -71 19 -132 14 -61 23 -112 21 -115 -3 -2 -14
12 -26 31 -38 61 -118 125 -179 142 -104 30 -230 -3 -298 -78 -159 -176 -93
-537 118 -644 63 -32 70 -30 22 4 -61 45 -114 109 -148 181 -30 63 -31 72 -31
191 0 120 1 127 30 179 36 66 85 107 149 126 63 19 90 19 156 -1 63 -19 137
-87 190 -176 35 -58 44 -65 68 -49 11 7 7 40 -25 181 -36 165 -54 207 -66 160z"/>
<path d="M5677 8600 c-27 -226 121 -448 347 -522 74 -24 163 -28 433 -18 l101
4 52 139 c28 76 49 144 47 150 -4 13 -103 -167 -112 -206 -9 -35 -16 -39 -78
-42 -29 -1 -110 -5 -182 -9 -149 -9 -224 3 -323 53 -162 82 -256 230 -271 426
l-7 90 -7 -65z"/>
<path d="M4400 8948 c35 -58 22 -133 -30 -176 -8 -7 -45 -30 -82 -53 -53 -31
-68 -45 -68 -63 0 -22 16 -36 42 -36 7 0 6 5 -2 14 -9 12 -4 19 32 37 126 64
168 113 168 197 0 46 -4 58 -29 83 -39 39 -56 37 -31 -3z"/>
<path d="M3943 8935 c-41 -18 -48 -42 -48 -172 0 -70 4 -106 13 -115 23 -23
32 11 32 122 0 58 4 112 9 119 6 10 32 16 73 19 76 5 132 -15 150 -52 14 -32
28 -33 28 -3 0 32 -27 67 -66 83 -43 18 -149 17 -191 -1z"/>
<path d="M3983 8874 c-9 -4 -13 -33 -13 -95 l0 -89 58 29 c97 49 137 107 97
141 -15 13 -122 23 -142 14z"/>
<path d="M3980 8592 c-67 -24 -76 -30 -81 -57 -16 -72 -6 -353 12 -369 2 -2
15 -7 27 -11 21 -6 23 -5 13 13 -7 13 -11 89 -11 194 l0 174 80 23 80 23 44
-36 c56 -46 82 -88 100 -162 13 -53 15 -55 16 -24 5 92 -19 150 -92 215 -60
54 -80 56 -188 17z"/>
<path d="M4365 8578 c84 -62 126 -132 133 -221 8 -110 -34 -174 -145 -218 -55
-22 -76 -23 -403 -29 -329 -7 -390 -11 -390 -31 0 -5 153 -9 348 -9 271 0 361
4 410 15 111 26 175 72 206 147 19 44 21 135 4 190 -15 49 -88 132 -139 158
-50 26 -61 25 -24 -2z"/>
<path d="M4025 8530 l-50 -17 -3 -156 -3 -156 25 -7 c33 -8 126 13 152 34 82
68 80 185 -6 274 -25 26 -51 47 -56 47 -5 -1 -31 -9 -59 -19z m93 -55 c88 -99
50 -235 -64 -235 l-44 0 0 124 0 123 33 11 c17 5 35 10 38 11 4 1 21 -15 37
-34z"/>
<path d="M5520 8981 c-85 -23 -113 -39 -204 -112 -98 -78 -102 -95 -42 -153
77 -76 166 -233 224 -398 41 -115 67 -164 97 -184 35 -23 39 -14 10 28 -13 19
-43 87 -66 149 -69 190 -127 293 -222 395 l-57 61 68 57 c85 73 141 106 222
132 35 12 66 26 68 33 5 15 -20 13 -98 -8z"/>
<path d="M5077 8939 c-33 -13 -39 -34 -35 -122 l3 -67 52 45 c68 60 118 124
106 136 -14 14 -95 20 -126 8z"/>
<path d="M4996 8585 l-27 -25 3 -204 c3 -184 5 -206 22 -225 l19 -21 -142 0
c-137 0 -231 -13 -231 -31 0 -5 99 -9 221 -9 205 0 220 1 217 18 -2 9 -12 18
-24 20 -35 5 -44 54 -44 253 1 184 1 184 25 202 l25 18 50 -68 c54 -74 130
-214 150 -278 19 -60 33 -69 25 -15 -14 91 -90 242 -177 353 -36 45 -72 49
-112 12z"/>
<path d="M5263 8099 c-75 -22 -28 -29 193 -29 209 0 225 1 222 18 -3 15 -21
17 -193 19 -105 1 -205 -3 -222 -8z"/>
<path d="M7131 8977 c-66 -33 -72 -56 -83 -357 -12 -326 -1 -387 75 -426 32
-17 32 -17 -9 44 -33 47 -37 107 -27 388 10 279 16 305 81 333 31 14 44 41 20
41 -7 -1 -33 -11 -57 -23z"/>
<path d="M7621 8981 c-31 -11 -49 -26 -63 -51 -18 -32 -19 -46 -11 -190 4 -85
8 -222 8 -305 0 -135 -2 -154 -22 -190 -25 -47 -65 -86 -111 -110 -82 -41
-272 -57 -397 -34 -120 22 -181 71 -217 174 -17 48 -17 49 -18 16 -1 -149 108
-228 330 -238 262 -13 422 61 467 216 16 57 16 128 -3 501 -5 104 -3 118 15
147 11 17 35 37 55 44 20 7 36 19 36 26 0 16 -14 15 -69 -6z"/>
<path d="M815 3220 c-54 -27 -85 -74 -85 -130 0 -24 14 -86 32 -137 l32 -93
-21 -28 c-25 -33 -82 -42 -119 -17 -35 22 -82 91 -94 137 -6 21 -17 38 -24 38
-20 0 -56 -44 -56 -69 0 -55 84 -162 158 -200 87 -44 162 -39 223 16 67 60 69
106 14 258 -31 85 -27 116 19 137 51 22 134 -45 151 -122 10 -44 23 -46 58
-11 l31 31 -21 44 c-31 64 -77 111 -135 140 -62 31 -109 33 -163 6z"/>
<path d="M10358 3101 c-57 -36 -123 -118 -140 -173 -11 -38 -10 -42 11 -59 13
-11 27 -19 31 -19 5 0 20 26 35 57 46 100 98 137 153 109 17 -9 33 -20 37 -26
3 -5 -17 -38 -46 -72 -89 -107 -102 -167 -46 -223 64 -64 136 -59 209 14 36
36 49 57 54 90 6 39 9 42 32 36 18 -4 31 0 48 16 13 12 24 28 24 34 0 15 -217
208 -258 229 -47 24 -92 20 -144 -13z m242 -242 c0 -41 -23 -83 -55 -97 -35
-16 -42 -15 -65 8 -31 31 -25 65 21 115 l41 45 29 -21 c21 -15 29 -29 29 -50z"/>
<path d="M10076 2827 l-38 -33 61 -134 c55 -121 69 -160 57 -160 -3 0 -68 32
-145 70 -78 39 -144 70 -149 70 -4 0 -24 -16 -45 -36 -26 -25 -35 -40 -28 -47
5 -5 106 -54 223 -108 l213 -98 23 -63 c13 -35 27 -67 32 -72 12 -12 79 41 86
68 4 19 -45 139 -217 534 -10 23 -22 42 -26 42 -4 0 -25 -15 -47 -33z"/>
<path d="M1064 2761 c-86 -39 -164 -142 -164 -215 1 -77 74 -166 174 -212 48
-22 67 -25 109 -20 108 12 227 133 227 230 0 51 -14 81 -67 138 -84 90 -189
120 -279 79z m191 -112 c43 -38 51 -66 31 -110 -19 -44 -44 -71 -91 -103 -43
-30 -74 -32 -115 -11 -88 46 -77 153 23 226 55 40 104 39 152 -2z"/>
<path d="M1539 2403 c-246 -291 -224 -261 -206 -281 9 -9 29 -25 45 -34 l30
-18 113 133 c62 72 153 178 201 235 48 56 88 108 88 116 0 12 -67 66 -82 66
-3 0 -88 -98 -189 -217z"/>
<path d="M9605 2454 c-59 -31 -139 -105 -156 -146 -10 -24 -9 -32 6 -48 25
-28 42 -25 59 9 24 45 104 111 136 111 30 0 80 -34 80 -55 0 -7 -12 -21 -27
-30 -44 -29 -114 -97 -129 -126 -24 -47 -18 -85 22 -129 34 -37 40 -40 89 -40
67 0 140 45 170 105 11 22 21 42 23 45 2 2 11 -1 22 -7 15 -10 24 -8 51 10 18
12 32 27 30 32 -6 25 -196 258 -224 276 -43 26 -92 23 -152 -7z m198 -220 c14
-18 17 -35 13 -59 -8 -38 -56 -85 -88 -85 -47 0 -75 63 -45 100 21 26 78 70
90 70 7 0 20 -12 30 -26z"/>
<path d="M1718 2201 c-105 -148 -122 -182 -115 -234 11 -80 119 -145 216 -130
30 5 33 4 26 -13 -17 -42 -15 -49 14 -67 16 -9 34 -17 39 -17 10 0 48 52 213
285 l42 59 -34 28 c-18 15 -41 28 -51 28 -11 0 -47 -42 -98 -114 -78 -110 -82
-114 -125 -120 -73 -11 -137 38 -118 91 7 19 125 196 151 225 20 24 10 44 -37
68 -22 11 -42 20 -43 20 -2 0 -38 -49 -80 -109z"/>
<path d="M9238 2195 c-54 -20 -88 -45 -119 -89 -39 -52 -40 -134 -5 -204 43
-85 135 -152 208 -152 39 0 126 42 160 77 61 65 66 95 20 137 -21 18 -21 18
-35 -16 -22 -52 -71 -88 -120 -88 -36 0 -46 6 -88 49 -55 57 -75 111 -56 150
18 37 74 71 117 71 47 0 52 6 35 40 -22 43 -52 49 -117 25z"/>
<path d="M8894 1986 c-19 -19 -34 -43 -34 -54 0 -31 -21 -38 -39 -13 -17 22
-18 22 -54 5 -20 -10 -37 -23 -37 -30 0 -10 193 -360 205 -372 6 -7 86 40 91
53 3 8 -10 40 -29 72 -78 132 -90 160 -83 198 8 43 46 85 76 85 25 0 26 22 3
61 -23 39 -56 38 -99 -5z"/>
<path d="M2243 1970 c-30 -12 -63 -68 -63 -105 0 -34 14 -58 77 -129 49 -55
53 -79 19 -101 -35 -23 -72 -10 -134 49 -56 53 -64 53 -79 -3 -5 -20 2 -31 34
-61 42 -40 135 -80 184 -80 65 0 125 47 130 101 5 52 -3 68 -61 134 -60 68
-70 91 -48 113 28 28 81 11 141 -47 41 -38 49 -36 64 18 12 47 -93 113 -187
118 -30 1 -65 -1 -77 -7z"/>
<path d="M2578 1628 c-51 -101 -94 -186 -96 -190 -5 -10 77 -50 94 -46 19 4
204 363 195 377 -7 11 -73 41 -91 41 -5 0 -51 -82 -102 -182z"/>
<path d="M8435 1766 c-88 -28 -132 -64 -160 -128 -20 -50 -19 -97 4 -158 53
-141 154 -189 294 -141 58 20 128 63 160 99 17 19 17 22 2 51 l-16 32 -42 -34
c-102 -83 -186 -99 -239 -46 -39 39 -36 42 101 103 146 64 153 70 140 104 -18
47 -60 94 -103 113 -47 21 -85 23 -141 5z m69 -78 c24 -10 62 -55 54 -63 -9
-9 -162 -75 -174 -75 -17 0 -19 72 -3 101 10 20 60 48 86 49 7 0 23 -5 37 -12z"/>
<path d="M3258 1696 c-129 -36 -228 -177 -228 -326 0 -82 23 -134 80 -183 69
-59 241 -103 293 -75 19 10 49 67 41 79 -2 4 -30 5 -63 2 -67 -6 -118 8 -162
44 -62 52 -73 113 -39 209 60 171 206 215 327 99 49 -47 59 -48 74 -7 16 40 3
68 -46 102 -84 58 -193 80 -277 56z"/>
<path d="M7954 1581 c-48 -12 -92 -42 -121 -83 -29 -43 -39 -47 -48 -18 -8 24
-24 25 -70 6 l-34 -14 33 -84 c18 -46 66 -166 106 -268 40 -102 76 -188 79
-192 8 -9 71 7 95 25 16 12 15 18 -18 97 -20 46 -36 88 -36 92 0 4 30 5 68 2
57 -4 73 -2 106 18 79 47 104 114 81 216 -34 144 -135 229 -241 203z m55 -117
c31 -22 71 -110 71 -157 0 -77 -83 -113 -156 -68 -41 25 -80 124 -65 164 26
67 98 97 150 61z"/>
<path d="M7538 1443 c-26 -4 -88 -63 -88 -83 0 -6 -7 -10 -15 -10 -8 0 -15 9
-15 19 0 11 -4 23 -10 26 -11 7 -90 -13 -90 -23 0 -4 24 -95 54 -202 l54 -195
47 2 c26 1 52 6 58 12 7 7 1 46 -22 126 -23 81 -31 127 -27 150 8 43 57 85 98
85 30 0 30 1 23 38 -7 37 -22 63 -34 61 -3 -1 -18 -4 -33 -6z"/>
<path d="M3695 1393 c-75 -39 -116 -113 -123 -218 -3 -61 -1 -74 20 -105 47
-69 140 -109 261 -113 71 -2 82 3 92 44 l7 27 -84 4 c-54 2 -96 10 -121 22
-53 26 -82 87 -58 124 6 10 37 6 152 -23 l144 -36 18 23 c16 18 18 36 15 95
-4 84 -23 111 -103 149 -61 29 -172 33 -220 7z m175 -70 c14 -9 28 -22 32 -27
12 -17 9 -86 -2 -86 -6 0 -49 10 -95 21 -97 24 -106 39 -54 83 36 30 83 34
119 9z"/>
<path d="M6500 1381 l-225 -26 1 -38 c1 -21 4 -40 7 -43 3 -3 43 -1 89 5 45 5
86 7 89 3 3 -4 19 -110 34 -237 15 -126 29 -234 32 -239 7 -10 101 -2 112 10
5 5 -5 114 -21 243 -16 128 -27 236 -24 238 2 3 40 10 83 15 43 6 82 14 87 19
5 4 5 24 2 43 -5 26 -12 36 -24 35 -9 -1 -118 -14 -242 -28z"/>
<path d="M4886 1379 c-2 -13 -9 -64 -15 -113 -6 -49 -13 -91 -15 -94 -3 -2
-19 7 -36 22 -40 33 -66 39 -138 34 -97 -7 -152 -66 -170 -183 -24 -151 34
-244 156 -253 45 -3 70 1 107 17 59 26 69 26 62 1 -6 -24 18 -40 61 -40 35 0
31 -16 61 240 41 338 44 370 39 375 -3 3 -28 8 -56 12 -48 5 -51 4 -56 -18z
m-80 -271 l37 -32 -6 -69 c-7 -76 -21 -101 -74 -123 -48 -21 -71 -17 -104 15
-25 26 -29 37 -29 86 0 137 89 200 176 123z"/>
<path d="M4204 1296 c-3 -8 -25 -99 -49 -203 -49 -210 -49 -210 25 -215 l44
-3 31 129 c28 122 32 130 65 153 35 24 80 27 122 9 13 -6 19 0 27 31 16 57 14
61 -30 74 -35 11 -45 10 -82 -8 -56 -27 -62 -27 -62 4 0 20 -6 29 -25 34 -41
11 -60 10 -66 -5z"/>
<path d="M6905 1286 c-59 -27 -100 -71 -115 -124 -14 -53 -13 -81 10 -155 24
-76 65 -120 132 -138 58 -16 176 3 248 39 47 23 55 31 52 52 -5 50 -8 51 -73
20 -81 -38 -135 -46 -182 -27 -40 17 -78 74 -57 87 7 4 71 19 143 34 72 14
137 32 145 40 31 30 -26 144 -88 177 -51 28 -151 25 -215 -5z m157 -76 c46
-46 35 -62 -52 -82 -108 -23 -110 -23 -110 13 0 40 14 65 48 83 44 24 80 20
114 -14z"/>
<path d="M5221 1179 c-60 -12 -91 -34 -91 -65 0 -33 17 -38 69 -19 24 8 67 15
96 15 66 0 96 -21 98 -70 l2 -35 -91 -6 c-109 -7 -175 -34 -194 -80 -19 -44
-7 -109 25 -136 55 -48 163 -54 232 -13 42 25 43 25 43 0 0 -21 33 -35 67 -28
24 4 35 86 31 246 l-3 124 -31 28 c-50 44 -150 59 -253 39z m169 -273 c0 -38
-10 -56 -41 -71 -61 -32 -129 -13 -129 35 0 42 32 60 107 60 60 0 63 -1 63
-24z"/>
<path d="M5730 1158 c-57 -29 -84 -78 -70 -128 15 -52 48 -79 123 -102 66 -20
107 -46 107 -68 0 -5 -9 -19 -20 -30 -25 -25 -116 -28 -161 -5 -34 18 -49 13
-49 -18 1 -50 42 -71 141 -71 133 0 210 60 195 152 -8 51 -41 79 -126 108 -40
13 -80 30 -87 36 -20 17 -16 56 8 69 21 11 92 8 152 -7 24 -6 27 -3 27 18 0
50 -21 63 -112 66 -71 3 -90 0 -128 -20z"/>
</g>
</svg>
